<svg width="593" height="478" viewBox="0 0 593 478" fill="none" xmlns="http://www.w3.org/2000/svg">
<path d="M498.408 0V32.1002H560.399V94.0867H592.5V0H498.408Z" fill="white"/>
<path d="M498.314 32.1357H466.213V126.222H560.305V94.1202H498.314V32.1357Z" fill="white"/>
<path d="M466.194 32.1002V0H0L32.1022 32.1002H466.194Z" fill="white"/>
<path d="M560.4 445.756L592.5 477.857V126.501H560.4V445.756Z" fill="white"/>
<path d="M0 152.423H64.3251V189.043H37.7374V277.169H64.3251V313.276H37.7374V431.348H0V152.423Z" fill="white"/>
<path d="M75.9894 152.423H113.727V431.348H75.9894V152.423Z" fill="white"/>
<path d="M132.424 152.423H166.902L190.402 297.875H192.632L188.344 152.423H225.738V431.348H192.632L166.902 276.656H165.53L169.647 431.348H132.424V152.423Z" fill="white"/>
<path d="M240.833 307.971H309.104V339.799H240.833V307.971Z" fill="white"/>
<path d="M321.283 152.423H359.02V431.348H321.283V152.423Z" fill="white"/>
<path d="M371.713 152.423H462.455V188.872H436.039V431.348H398.301V188.872H371.713V152.423Z" fill="white"/>
</svg>
