<?xml version="1.0" encoding="utf-8"?>
<!-- Generator: Adobe Illustrator 16.0.0, SVG Export Plug-In . SVG Version: 6.00 Build 0)  -->
<!DOCTYPE svg PUBLIC "-//W3C//DTD SVG 1.1//EN" "http://www.w3.org/Graphics/SVG/1.1/DTD/svg11.dtd">
<svg version="1.1" id="Layer_1" xmlns="http://www.w3.org/2000/svg" xmlns:xlink="http://www.w3.org/1999/xlink" x="0px" y="0px"
	 width="55.5px" height="17.75px" viewBox="0 0 55.5 17.75" enable-background="new 0 0 55.5 17.75" xml:space="preserve">
<g>
	<path fill="#FFFFFF" d="M22.747,11.127c0,0-0.02-0.075-0.066-0.215c-0.048-0.139-0.185-0.185-0.288-0.229
		c-0.103-0.045-0.135-0.163-0.068-0.214c0.158-0.101,0.325-0.187,0.498-0.261c0.416-0.201-0.129-0.28-0.38-0.454
		c-0.131-0.084-0.234-0.203-0.301-0.344c-0.006-0.014-0.011-0.027-0.015-0.041l-1.932-5.505H18.35l-1.921,5.451l-0.014,0.032
		c0,0-0.131,0.299,0.032,0.43s0.401,0.238-0.015,0.429c-0.416,0.191-0.579,0.26-0.644,0.306c-0.064,0.045-0.097,0.142,0.015,0.162
		c0.111,0.022,0.111,0.142,0.061,0.275l-0.082,0.215l-0.858,2.434h1.844l0.858-2.438l0.079-0.201
		c0.052-0.134,0.052-0.254-0.06-0.275c-0.112-0.021-0.082-0.12-0.016-0.163c0.066-0.042,0.23-0.104,0.645-0.305
		c0.414-0.199,0.147-0.335,0.015-0.43c-0.133-0.094-0.03-0.429-0.03-0.429l1.007-2.865l1.073,3.044h-1.577
		c-0.021,0.09,0.008,0.186,0.077,0.248c0.133,0.104,0.401,0.238-0.016,0.43c-0.416,0.191-0.579,0.26-0.644,0.305
		s-0.097,0.142,0.015,0.163c0.112,0.021,0.112,0.142,0.061,0.274s-0.105,0.297-0.105,0.297v0.011h2.801l0.822,2.337h1.844
		l-0.858-2.451L22.747,11.127z"/>
	<polygon fill="#FFFFFF" points="34.762,4.156 35.588,5.229 35.618,5.229 36.427,4.156 36.427,5.925 36.642,5.925 36.642,3.83 
		36.44,3.83 35.629,4.931 34.771,3.83 34.556,3.83 34.547,5.907 34.762,5.907 	"/>
	<polygon fill="#FFFFFF" points="42.544,3.83 42.544,5.925 42.758,5.925 42.758,5.031 43.698,5.031 43.698,4.817 42.758,4.817 
		42.758,4.044 43.787,4.044 43.787,3.83 	"/>
	<path fill="#FFFFFF" d="M25.048,1.469H13.404c-0.857,0-1.552,0.694-1.552,1.552v11.644c0,0.857,0.694,1.552,1.552,1.552h11.644
		c0.856,0,1.552-0.694,1.552-1.552V3.021C26.6,2.163,25.904,1.469,25.048,1.469z M26.215,14.664
		c-0.001,0.645-0.522,1.166-1.167,1.168H13.404c-0.645-0.002-1.166-0.523-1.168-1.168V3.021c0-0.645,0.522-1.168,1.168-1.17h11.644
		c0.645,0.002,1.166,0.523,1.167,1.168V14.664z"/>
	<path fill="#FFFFFF" d="M40.892,7.802c-1.115-0.001-2.131,0.64-2.612,1.646c0-0.711-0.699-1.55-1.518-1.55h-2.64v5.689h2.462
		c0.897-0.007,1.64-0.705,1.7-1.602c0.485,0.995,1.495,1.627,2.603,1.629c1.601-0.014,2.893-1.314,2.896-2.916
		C43.783,9.101,42.489,7.804,40.892,7.802z M36.777,11.856c-0.034,0.207-0.195,0.368-0.402,0.401h-0.783v-0.959l0.783-0.002
		C36.641,11.34,36.821,11.591,36.777,11.856z M36.777,9.71c-0.034,0.206-0.195,0.368-0.402,0.402h-0.783V9.159l0.783-0.009
		C36.641,9.194,36.821,9.444,36.777,9.71z M38.007,11.134c-0.139-0.208-0.346-0.361-0.584-0.436
		c0.225-0.062,0.428-0.187,0.584-0.359C37.967,10.603,37.967,10.871,38.007,11.134z M40.89,12.146c-0.801,0-1.449-0.648-1.449-1.448
		c0-0.801,0.648-1.449,1.449-1.449c0.8,0,1.448,0.648,1.448,1.449C42.338,11.498,41.689,12.146,40.89,12.146z"/>
	<polygon fill="#FFFFFF" points="38.589,5.719 37.53,5.719 37.53,4.968 38.466,4.968 38.466,4.753 37.532,4.753 37.532,4.044 
		38.561,4.044 38.561,3.83 37.322,3.83 37.32,5.934 38.589,5.934 	"/>
	<path fill="#FFFFFF" d="M40.958,5.941c0.593,0,1.073-0.48,1.073-1.072c0-0.021,0-0.041,0-0.062
		c-0.017-0.576-0.498-1.029-1.073-1.012c-0.015-0.001-0.029-0.001-0.044,0c-0.58,0.012-1.041,0.492-1.029,1.073
		C39.885,5.461,40.365,5.941,40.958,5.941z M40.958,4.015c0.474,0,0.858,0.384,0.858,0.858c0.001,0.021,0.001,0.042,0,0.063
		c-0.014,0.46-0.399,0.82-0.858,0.806c-0.004,0-0.008,0-0.011,0c-0.475-0.006-0.854-0.396-0.849-0.869
		C40.099,4.398,40.484,4.015,40.958,4.015z"/>
	<polygon fill="#FFFFFF" points="40.89,13.614 40.887,13.614 40.883,13.614 	"/>
	<path fill="#FFFFFF" d="M43.598,8.38l-0.109-0.167c0.002,0,0.005-0.001,0.007-0.001c0.055-0.003,0.096-0.051,0.092-0.104
		c0-0.077-0.045-0.109-0.135-0.109h-0.146V8.38h0.059l0.001-0.165h0.067l0.101,0.165H43.598z M43.362,8.165V8.048h0.079
		c0.04,0,0.083-0.007,0.083,0.055c0,0.063-0.043,0.063-0.092,0.063H43.362z"/>
	<path fill="#FFFFFF" d="M40.898,9.559c-0.63-0.003-1.143,0.506-1.145,1.135c0,0.002,0,0.003,0,0.005
		c0.002,0.626,0.511,1.134,1.138,1.136l-0.002,0.004c0.629,0.002,1.141-0.507,1.144-1.136C42.035,10.073,41.527,9.561,40.898,9.559z
		"/>
	<polygon fill="#FFFFFF" points="29.866,4.952 31.184,4.952 31.184,5.925 31.398,5.925 31.398,3.83 31.184,3.83 31.184,4.751 
		29.866,4.751 29.866,3.83 29.651,3.83 29.651,5.918 29.866,5.918 	"/>
	<polygon fill="#FFFFFF" points="32.255,10.012 31.25,10.012 31.25,7.893 29.656,7.893 29.656,13.589 31.248,13.589 31.248,11.378 
		32.253,11.378 32.253,13.589 33.8,13.589 33.803,7.893 32.255,7.893 	"/>
	<path fill="#FFFFFF" d="M43.438,8.52c0.186-0.003,0.333-0.154,0.331-0.339c-0.002-0.186-0.154-0.333-0.339-0.331
		c-0.186,0.003-0.333,0.154-0.331,0.34c0,0.001,0,0.002,0,0.004c0.003,0.183,0.152,0.328,0.335,0.326
		C43.437,8.52,43.438,8.52,43.438,8.52z M43.166,8.189c0-0.002,0-0.004,0-0.005c0.004-0.151,0.13-0.271,0.281-0.269
		c0.151,0.004,0.272,0.13,0.269,0.281c-0.003,0.152-0.129,0.272-0.281,0.269V8.464c-0.003,0-0.007,0-0.011,0
		C43.277,8.459,43.162,8.336,43.166,8.189z"/>
	<path fill="#FFFFFF" d="M32.974,3.796c-0.015-0.001-0.029-0.001-0.043,0c-0.581,0.012-1.042,0.492-1.03,1.073
		c0,0.592,0.48,1.072,1.073,1.072s1.073-0.48,1.073-1.072c0.001-0.021,0.001-0.041,0-0.062C34.03,4.231,33.55,3.778,32.974,3.796z
		 M33.833,4.937c-0.015,0.46-0.399,0.82-0.859,0.806c-0.003,0-0.007,0-0.011,0c-0.474-0.006-0.854-0.396-0.848-0.869
		c0-0.475,0.385-0.858,0.858-0.858c0.475,0,0.858,0.384,0.858,0.858C33.833,4.895,33.833,4.915,33.833,4.937z"/>
</g>
</svg>
