<?xml version="1.0" encoding="utf-8"?>
<!-- Generator: Adobe Illustrator 16.0.0, SVG Export Plug-In . SVG Version: 6.00 Build 0)  -->
<!DOCTYPE svg PUBLIC "-//W3C//DTD SVG 1.1//EN" "http://www.w3.org/Graphics/SVG/1.1/DTD/svg11.dtd">
<svg version="1.1" id="Layer_1" xmlns="http://www.w3.org/2000/svg" xmlns:xlink="http://www.w3.org/1999/xlink" x="0px" y="0px"
	 width="55.5px" height="17.75px" viewBox="0 0 55.5 17.75" enable-background="new 0 0 55.5 17.75" xml:space="preserve">
<g>
	<g>
		<g>
			<g>
				<path fill="#FFFFFF" d="M52.223,7.254c-0.01,0-0.018,0.007-0.018,0.017v0.149c0,0.01,0.008,0.017,0.018,0.017
					c0,0,0.248,0,0.279,0c0,0.033,0,0.957,0,0.957c0,0.009,0.008,0.017,0.018,0.017h0.156c0.01,0,0.018-0.008,0.018-0.017
					c0,0,0-0.923,0-0.957c0.029,0,0.279,0,0.279,0c0.01,0,0.016-0.007,0.016-0.017V7.271c0-0.01-0.006-0.017-0.016-0.017H52.223z"/>
				<path fill="#FFFFFF" d="M54.012,7.254c-0.006,0-0.014,0.004-0.016,0.01c0,0-0.285,0.667-0.314,0.733
					c-0.027-0.066-0.313-0.733-0.313-0.733c-0.004-0.006-0.01-0.01-0.016-0.01h-0.191c-0.008,0-0.016,0.007-0.016,0.017v1.123
					c0,0.009,0.008,0.017,0.016,0.017h0.154c0.004,0,0.01-0.002,0.012-0.005c0.004-0.003,0.006-0.007,0.006-0.012
					c0,0-0.006-0.653-0.008-0.79c0.055,0.123,0.281,0.646,0.281,0.646c0.002,0.006,0.008,0.01,0.014,0.01h0.121
					c0.006,0,0.014-0.004,0.016-0.01c0,0,0.227-0.524,0.279-0.646c0,0.137-0.006,0.79-0.006,0.79c0,0.004,0.002,0.009,0.004,0.012
					c0.004,0.003,0.008,0.005,0.012,0.005h0.154c0.01,0,0.018-0.008,0.018-0.017V7.271c0-0.01-0.008-0.017-0.018-0.017H54.012z"/>
				<path fill="#FFFFFF" d="M50.344,7.254c-0.102,0-0.191,0.088-0.191,0.19V9.24h-2.264V7.444c0-0.102-0.088-0.19-0.189-0.19h-0.621
					c-0.1,0-0.176,0.088-0.176,0.19v4.616c0,0.102,0.076,0.19,0.176,0.19h0.621c0.102,0,0.189-0.088,0.189-0.19v-1.923h2.264v1.923
					c0,0.102,0.09,0.19,0.191,0.19h0.619c0.088,0,0.176-0.088,0.176-0.19V7.444c0-0.102-0.088-0.19-0.176-0.19H50.344z
					 M45.537,5.193c0.113,0,0.201,0.088,0.201,0.189v0.569c0,0.101-0.088,0.189-0.201,0.189h-3.859c-0.1,0-0.189-0.088-0.189-0.189
					V5.382c0-0.101,0.09-0.189,0.189-0.189H45.537z M20.538,5.193c-0.101,0-0.189,0.088-0.189,0.189v4.755
					c0,1.278,0.405,2.125,1.999,2.125h0.189c2.277,0,2.619-1.505,2.619-2.276c0-0.683-0.253-2.302-2.518-2.302h-1.264V6.141h2.921
					c0.101,0,0.19-0.088,0.19-0.189V5.382c0-0.101-0.089-0.189-0.19-0.189H20.538z M22.675,8.621c0.923,0,1.442,0.505,1.442,1.366
					c0,0.86-0.519,1.328-1.442,1.328h-0.329c-0.696,0-0.974-0.291-0.974-1.076V8.621H22.675z M37.025,7.343
					c-0.063,0.025-0.113,0.102-0.113,0.165v0.569c0,0.05,0.037,0.113,0.074,0.139c0.051,0.025,0.102,0.039,0.152,0.025
					c0.342-0.114,0.734-0.228,1.379-0.228c0.797,0,0.936,0.241,0.936,0.809v0.102L38.354,9c-1.771,0.126-1.859,1.278-1.859,1.632
					c0,1.049,0.557,1.694,1.885,1.694c0.418,0,0.885-0.126,1.289-0.379l0.09,0.19c0.025,0.063,0.088,0.114,0.164,0.114h0.367
					c0.088,0,0.178-0.076,0.178-0.177V8.835c0-1.189-0.633-1.758-1.949-1.758C37.961,7.078,37.418,7.179,37.025,7.343L37.025,7.343z
					 M37.545,10.632c0-0.354,0.063-0.721,0.795-0.785l1.102-0.101l0.012,1.328c-0.354,0.216-0.633,0.329-1.063,0.329
					C37.973,11.403,37.545,11.239,37.545,10.632L37.545,10.632z M29.375,12.137c0.025,0.063,0.088,0.114,0.164,0.114h0.441
					c0.09,0,0.178-0.076,0.178-0.177V7.444c0-0.102-0.076-0.19-0.189-0.19h-0.607c-0.113,0-0.189,0.088-0.189,0.19v3.25
					c-0.328,0.354-0.924,0.658-1.365,0.658c-0.621,0-0.924-0.342-0.924-1.215V7.444c0-0.102-0.089-0.19-0.189-0.19h-0.608
					c-0.101,0-0.189,0.088-0.189,0.19v3.01c0,1.1,0.595,1.872,1.745,1.872c0.709,0,1.328-0.379,1.633-0.645L29.375,12.137z
					 M44.967,12.137c0.025,0.063,0.088,0.114,0.164,0.114h0.443c0.088,0,0.178-0.076,0.178-0.177V7.444
					c0-0.102-0.076-0.19-0.191-0.19h-0.605c-0.115,0-0.189,0.088-0.189,0.19v3.25c-0.33,0.354-0.924,0.658-1.367,0.658
					c-0.619,0-0.924-0.342-0.924-1.215V7.444c0-0.102-0.088-0.19-0.189-0.19h-0.607c-0.1,0-0.189,0.088-0.189,0.19v3.01
					c0,1.1,0.594,1.872,1.746,1.872c0.709,0,1.328-0.379,1.631-0.645L44.967,12.137z M31.725,10.492
					c-0.063,0.67-0.24,0.835-0.809,0.898c-0.088,0.013-0.178,0.102-0.178,0.203v0.506c0,0.101,0.09,0.189,0.178,0.189
					c1.113,0,1.67-0.531,1.783-1.847l0.113-1.176c0.076-0.822,0.242-1.075,0.986-1.075h0.822v3.871c0,0.102,0.09,0.19,0.191,0.19
					h0.607c0.088,0,0.189-0.088,0.189-0.19V7.444c0-0.102-0.102-0.19-0.189-0.19h-1.672c-1.377,0-1.783,0.797-1.896,1.922
					L31.725,10.492z"/>
			</g>
		</g>
	</g>
	<g>
		<radialGradient id="SVGID_1_" cx="11.2466" cy="5.4941" r="8.4814" gradientUnits="userSpaceOnUse">
			<stop  offset="0" style="stop-color:#58595B"/>
			<stop  offset="1" style="stop-color:#000000"/>
		</radialGradient>
		<circle fill="url(#SVGID_1_)" cx="8.657" cy="8.781" r="7.438"/>
		<radialGradient id="SVGID_2_" cx="11.0967" cy="6.7417" r="14.5576" gradientUnits="userSpaceOnUse">
			<stop  offset="0" style="stop-color:#FFEF9C"/>
			<stop  offset="0.3515" style="stop-color:#FDD608"/>
			<stop  offset="0.6485" style="stop-color:#F6AA26"/>
		</radialGradient>
		<path fill="url(#SVGID_2_)" d="M3.284,3.64C2.473,4.488,1.86,5.527,1.521,6.684c4.755-0.206,9.518-0.206,14.272,0
			c-0.34-1.156-0.952-2.195-1.764-3.044C10.448,3.525,6.865,3.525,3.284,3.64z"/>
		<radialGradient id="SVGID_3_" cx="11.0977" cy="6.5513" r="15.0875" gradientUnits="userSpaceOnUse">
			<stop  offset="0" style="stop-color:#FFEF9C"/>
			<stop  offset="0.3515" style="stop-color:#FDD608"/>
			<stop  offset="0.6485" style="stop-color:#F6AA26"/>
		</radialGradient>
		<path fill="url(#SVGID_3_)" d="M1.511,10.843c0.332,1.154,0.937,2.193,1.739,3.044c3.604,0.115,7.21,0.115,10.813,0
			c0.803-0.851,1.407-1.89,1.74-3.044C11.041,11.049,6.272,11.049,1.511,10.843z"/>
	</g>
</g>
</svg>
