<?xml version="1.0" encoding="utf-8"?>
<!-- Generator: Adobe Illustrator 16.0.0, SVG Export Plug-In . SVG Version: 6.00 Build 0)  -->
<!DOCTYPE svg PUBLIC "-//W3C//DTD SVG 1.1//EN" "http://www.w3.org/Graphics/SVG/1.1/DTD/svg11.dtd">
<svg version="1.1" id="Layer_1" xmlns="http://www.w3.org/2000/svg" xmlns:xlink="http://www.w3.org/1999/xlink" x="0px" y="0px"
	 width="55.5px" height="17.75px" viewBox="0 0 55.5 17.75" enable-background="new 0 0 55.5 17.75" xml:space="preserve">
<g id="g10" transform="matrix(1.3333333,0,0,-1.3333333,0,41.96)">
	<g id="g12" transform="scale(0.1)">
		<path id="path14" fill="#ED1C24" d="M9.412,205.049h26.034v7.885H9.412V205.049z"/>
		<path id="path16" fill="#ED1C24" d="M9.412,215.299h26.034v7.888H9.412V215.299z"/>
		<path id="path18" fill="#ED1C24" d="M9.412,225.553h26.034v7.892H9.412V225.553z"/>
		<path id="path20" fill="#F6836C" d="M9.412,235.811h26.034v7.888H9.412V235.811z"/>
		<path id="path22" fill="#F6836C" d="M9.412,246.068h26.034v7.885H9.412V246.068z"/>
		<path id="path24" fill="#FFF200" d="M38.599,205.049h26.034v7.885H38.599V205.049z"/>
		<path id="path26" fill="#FFF200" d="M38.599,215.299h26.034v7.888H38.599V215.299z"/>
		<path id="path28" fill="#FFF200" d="M38.599,225.553h26.034v7.892H38.599V225.553z"/>
		<path id="path30" fill="#EC008C" d="M67.79,205.049h26.034v7.885H67.79V205.049z"/>
		<path id="path32" fill="#EC008C" d="M67.79,215.299h26.034v7.888H67.79V215.299z"/>
		<path id="path34" fill="#EC008C" d="M67.79,225.553h26.034v7.892H67.79V225.553z"/>
		<path id="path36" fill="#F680C5" d="M67.79,235.811h26.034v7.888H67.79V235.811z"/>
		<path id="path38" fill="#F680C5" d="M67.79,246.068h26.034v7.885H67.79V246.068z"/>
		<path id="path40" fill="#F680C5" d="M67.79,256.326h26.034v7.888H67.79V256.326z"/>
		<path id="path42" fill="#F680C5" d="M67.79,266.58h26.034v7.885H67.79V266.58z"/>
		<path id="path44" fill="#B2DB18" d="M96.977,205.049h26.034v7.885H96.977V205.049z"/>
		<path id="path46" fill="#B2DB18" d="M96.977,215.299h26.034v7.888H96.977V215.299z"/>
		<path id="path48" fill="#B2DB18" d="M96.977,225.553h26.034v7.892H96.977V225.553z"/>
		<path id="path50" fill="#D9ED84" d="M96.977,235.811h26.034v7.888H96.977V235.811z"/>
		<path id="path52" fill="#D9ED84" d="M96.977,246.068h26.034v7.885H96.977V246.068z"/>
		<path id="path54" fill="#59CAF5" d="M126.167,205.049h26.034v7.885h-26.034V205.049z"/>
		<path id="path56" fill="#59CAF5" d="M126.167,215.299h26.034v7.888h-26.034V215.299z"/>
		<path id="path58" fill="#59CAF5" d="M126.167,225.561h26.034v7.885h-26.034V225.561z"/>
		<path id="path60" fill="#B2E6FA" d="M126.167,235.811h26.034v7.896h-26.034V235.811z"/>
		<path id="path62" fill="#B2E6FA" d="M126.167,246.068h26.034v7.892h-26.034V246.068z"/>
		<path id="path64" fill="#B2E6FA" d="M126.167,256.326h26.034v7.888h-26.034V256.326z"/>
		<path id="path66" fill="#B2E6FA" d="M126.167,266.583h26.034v7.888h-26.034V266.583z"/>
		<path id="path68" fill="#B2E6FA" d="M126.167,276.837h26.034v7.888h-26.034V276.837z"/>
		<path id="path70" fill="#FFFFFF" d="M174.28,215.237h6.112c8.983,0,10.448,4.731,10.448,19.772v30.077
			c0,12.979-1.11,17.344-11.415,17.344h-5.145V215.237z M162.448,292.617h19.523c19.647,0,21.5-6.877,21.5-32.351V234.24
			c0-22.441-4.508-29.191-23.668-29.191h-17.355V292.617"/>
		<path id="path72" fill="#FFFFFF" d="M208.202,292.617h33.131v-10.411h-21.299v-27.458h19.724v-10.254h-19.724v-29.044h21.299
			v-10.4h-33.131V292.617"/>
		<path id="path74" fill="#FFFFFF" d="M246.072,292.617h33.127v-10.411h-21.299v-27.458h19.724v-10.254h-19.724v-29.044h21.299
			v-10.4h-33.127V292.617"/>
		<path id="path76" fill="#FFFFFF" d="M327.32,292.617h33.135v-10.411h-21.306v-27.458h19.724v-10.254h-19.724v-29.044h21.306v-10.4
			H327.32V292.617"/>
		<path id="path78" fill="#FFFFFF" d="M283.931,215.299l27.268,67.053h-27.268v10.258h38.65v-10.258l-26.785-67.053h26.785v-10.258
			l-38.65,0.007V215.299"/>
		<path id="path80" fill="#FFFFFF" d="M377.022,253.953h3.669c9.573,0,11.038,1.183,11.038,14.282
			c0,12.982-1.165,14.125-8.672,14.125h-6.035V253.953z M365.178,292.61h18.94c17.703,0,18.948-4.512,18.948-23.676
			c0-11.759-1.113-17.509-11.052-20.541l0,0c8.24-0.842,11.067-5.149,11.067-13.396v-19.036c0-3.164,0.022-7.277,0.762-10.913
			h-11.829c-1.223,2.186-0.791,4.332-0.791,7.855v19.768c0,8.24-1.567,10.239-9.565,10.239h-4.636v-37.87l-11.843,0.007V292.61"/>
	</g>
</g>
</svg>
