<?xml version="1.0" encoding="utf-8"?>
<!-- Generator: Adobe Illustrator 16.0.0, SVG Export Plug-In . SVG Version: 6.00 Build 0)  -->
<!DOCTYPE svg PUBLIC "-//W3C//DTD SVG 1.1//EN" "http://www.w3.org/Graphics/SVG/1.1/DTD/svg11.dtd">
<svg version="1.1" id="Layer_1" xmlns="http://www.w3.org/2000/svg" xmlns:xlink="http://www.w3.org/1999/xlink" x="0px" y="0px"
	 width="55.5px" height="17.75px" viewBox="0 0 55.5 17.75" enable-background="new 0 0 55.5 17.75" xml:space="preserve">
<g>
	<polygon fill="#FA0701" points="5.655,2.607 49.454,1.313 48.838,11.915 8.181,16.211 	"/>
	<path fill="#FFF32B" d="M6.471,3.621l2.963,11.736l9.389-1.313l0.458-11.238L6.471,3.621z M13.005,13.288
		c-0.232,0.026-0.414,0.047-0.547,0.06c-0.133,0.013-0.278,0.013-0.438,0c-0.397-0.08-0.583-0.371-0.557-0.876
		c0.013-0.319,0.219-0.478,0.617-0.478c0.106,0,0.185,0.007,0.239,0.02c0.424,0.041,0.808,0.113,1.153,0.22
		c0.345,0.133,0.51,0.298,0.498,0.497c-0.014,0.186-0.073,0.317-0.179,0.398c-0.107,0.08-0.213,0.118-0.319,0.118
		C13.393,13.247,13.236,13.262,13.005,13.288z M18.365,7.24c-0.278,0.278-0.49,0.673-0.636,1.185
		c-0.146,0.51-0.199,0.931-0.159,1.262c0.079,0.769,0.106,1.279,0.079,1.531c-0.119,0.902-0.676,1.611-1.67,2.129
		c-0.783,0.371-1.531,0.357-2.248-0.041c0.305-0.052,0.491-0.178,0.557-0.377c0.04-0.146,0.04-0.271,0-0.378
		c-0.04-0.105-0.093-0.185-0.16-0.238l-0.119-0.1c0.04-0.013,0.09-0.029,0.149-0.049c0.06-0.021,0.15-0.097,0.269-0.229
		c0.119-0.131,0.192-0.298,0.219-0.497c0.054-0.464-0.179-0.816-0.696-1.054c-0.172-0.08-0.554-0.167-1.144-0.259
		c-0.554-0.087-0.959-0.116-1.238-0.099c0.066,0.001,0.164,0.013,0.294,0.039c0.345,0.094,0.676,0.186,0.995,0.278
		c0.092,0.027,0.377,0.12,0.855,0.278c0.053,0.028,0.086,0.041,0.1,0.041c0.332,0.133,0.457,0.385,0.378,0.756
		c-0.08,0.371-0.312,0.55-0.696,0.538c-1.127,0-1.863-0.087-2.208-0.259c-0.318-0.171-0.464-0.503-0.438-0.995
		c0.04-0.45,0.271-0.674,0.695-0.675c-0.01,0.001-0.029-0.001-0.039,0C9.514,9.058,8.48,8.548,8.4,8.493
		c-0.212-0.159-0.364-0.38-0.458-0.666C7.85,7.543,7.87,7.26,8.002,6.981c0.266-0.476,0.689-0.542,1.273-0.198
		c0.172,0.092,1.014,0.623,2.526,1.591c0.238,0.159,0.474,0.261,0.706,0.308c0.232,0.047,0.368,0.037,0.408-0.029
		c0.133-0.16,0.054-0.51-0.239-1.054c-0.384-0.73-0.829-1.473-1.332-2.228c-0.372-0.479-0.318-0.869,0.159-1.175
		C11.675,4.092,11.841,4.039,12,4.039c0.437,0,0.769,0.199,0.995,0.596c0.092,0.16,0.424,0.822,0.994,1.991
		c0.57,1.166,0.882,1.784,0.935,1.849c0.16,0.227,0.372,0.292,0.637,0.199c0.265-0.092,0.438-0.264,0.517-0.517
		c0.013-0.026,0.036-0.113,0.069-0.259s0.066-0.266,0.1-0.359c0.033-0.091,0.083-0.217,0.149-0.377
		c0.066-0.159,0.133-0.295,0.199-0.407c0.066-0.113,0.152-0.229,0.258-0.35c0.106-0.12,0.226-0.21,0.358-0.278
		c0.304-0.159,0.606-0.194,0.905-0.11c0.299,0.087,0.474,0.243,0.527,0.469C18.696,6.711,18.604,6.962,18.365,7.24z"/>
	<path fill="#FFFFFF" d="M23,6.863l-0.478-1.951l1.134-0.238l0.278,1.115l1.949-0.201c0-0.064-0.003-0.155-0.01-0.269
		c-0.006-0.111-0.05-0.304-0.129-0.576s-0.189-0.51-0.329-0.715c-0.139-0.206-0.357-0.385-0.656-0.538
		c-0.298-0.152-0.646-0.209-1.044-0.168c-0.968,0.092-1.69,0.38-2.168,0.865c-0.478,0.485-0.696,0.964-0.657,1.442l0.199,1.512
		L20.135,7.34l0.338,1.174l0.835-0.139c0.199,1.499,0.338,2.891,0.417,4.176l2.686-0.118l-0.557-4.157l1.612-0.201l-0.319-1.57
		L23,6.863z"/>
	<path fill="#FFFFFF" d="M26.043,6.823l0.458,4.238l1.689-0.3c-0.171-0.715-0.298-1.366-0.377-1.949l-0.199-2.048L26.043,6.823z"/>
	<path fill="#FFFFFF" d="M26.441,3.304l0.099,0.913l-0.418,0.081l0.081,0.538L26.6,4.773c0.12,0.903,0.332,1.353,0.636,1.353h0.24
		c0.199-0.026,0.364-0.071,0.497-0.139c0.186-0.133,0.271-0.371,0.259-0.715h-0.438c-0.027,0.12-0.067,0.212-0.119,0.278
		c-0.054,0.066-0.12,0.094-0.199,0.079c-0.146,0-0.253-0.257-0.319-0.775c-0.013-0.04-0.02-0.1-0.02-0.179l0.617-0.118l-0.099-0.538
		l-0.559,0.099l-0.059-0.915L26.441,3.304z"/>
	<path fill="#FFFFFF" d="M26.641,12.433c0.025,0.079,0.051,0.139,0.079,0.178l1.372-1.313c-0.266-0.171-0.591-0.193-0.975-0.06
		c-0.239,0.094-0.401,0.252-0.486,0.478C26.543,11.942,26.546,12.181,26.641,12.433z"/>
	<path fill="#FFFFFF" d="M27.694,13.029c0.265-0.039,0.474-0.172,0.626-0.398c0.152-0.225,0.202-0.469,0.148-0.735
		c-0.025-0.133-0.065-0.246-0.117-0.338l-1.373,1.293C27.203,13.009,27.441,13.069,27.694,13.029z"/>
	<path fill="#FFFFFF" d="M28.808,3.242l-0.756,0.021l0.417,2.705l0.598-0.079c-0.027-0.147-0.072-0.419-0.139-0.816
		c0.158-0.225,0.298-0.351,0.417-0.377c0.133,0,0.226,0.21,0.278,0.634l0.041,0.518L30.24,5.79c0-0.133-0.027-0.439-0.079-0.917
		c-0.014-0.265-0.066-0.497-0.159-0.696c-0.133-0.317-0.313-0.463-0.537-0.437c-0.187,0.026-0.398,0.126-0.637,0.298
		C28.814,3.867,28.808,3.602,28.808,3.242z"/>
	<polygon fill="#FFFFFF" points="31.651,10.881 33.641,10.701 32.109,8.474 32.527,7.619 33.185,6.486 31.771,6.525 31.176,7.739 
		30.439,6.645 28.63,6.784 30.12,8.812 28.808,11.159 30.24,11.259 30.996,9.787 	"/>
	<path fill="#FFFFFF" d="M31.851,4.655c-0.066,0.238-0.205,0.357-0.417,0.357c-0.238,0.026-0.412-0.073-0.517-0.298l1.49-0.537
		c-0.171-0.756-0.563-1.101-1.173-1.035C30.61,3.304,30.319,3.7,30.36,4.336v0.159c0.052,0.531,0.284,0.877,0.695,1.036
		c0.226,0.039,0.405,0.052,0.538,0.039c0.516-0.039,0.827-0.398,0.934-1.075L31.851,4.655z M31.016,3.899
		c0.079-0.092,0.199-0.152,0.357-0.178c0.146-0.013,0.291,0.058,0.438,0.217l-0.895,0.319C30.904,4.126,30.937,4.006,31.016,3.899z"
		/>
	<path fill="#FFFFFF" d="M33.721,5.511v0.198l1.751-0.735c-0.173-0.266-0.465-0.398-0.876-0.398
		c-0.266-0.013-0.474,0.066-0.626,0.238C33.817,4.987,33.733,5.218,33.721,5.511z"/>
	<path fill="#FFFFFF" d="M35.611,5.272L33.9,6.088c0.158,0.212,0.37,0.336,0.636,0.377s0.503-0.026,0.717-0.199
		c0.211-0.171,0.33-0.392,0.358-0.657C35.637,5.49,35.637,5.379,35.611,5.272z"/>
	<path fill="#FFFFFF" d="M34.277,10.84l1.691-0.279c-0.158-0.715-0.278-1.371-0.357-1.968c-0.041-0.265-0.07-0.534-0.091-0.806
		c-0.02-0.271-0.029-0.473-0.029-0.605l0.02-0.201L33.9,6.882L34.277,10.84z"/>
	<path fill="#FFFFFF" d="M42.552,7.281L41.04,7.858c-0.013,0.396-0.152,0.742-0.418,1.033c-0.265,0.293-0.596,0.465-0.993,0.518
		c-0.319,0.027-0.62-0.034-0.905-0.18c-0.285-0.146-0.502-0.357-0.647-0.636l4.317-1.67l-0.716-1.871l-1.751-0.257l-1.75-0.278
		l-1.114,1.392l-1.113,1.373l0.655,1.651l0.637,1.651l1.751,0.278l1.75,0.259l1.113-1.373l1.114-1.394L42.552,7.281z M38.297,6.743
		c0.264-0.291,0.596-0.458,0.993-0.497c0.517-0.066,0.955,0.094,1.313,0.478l-2.725,1.054C37.892,7.379,38.031,7.036,38.297,6.743z"
		/>
	<path fill="#FFFFFF" d="M46.569,9.787c0.345-0.185,0.585-0.434,0.718-0.747c0.132-0.311,0.178-0.612,0.139-0.903
		c-0.054-0.32-0.18-0.615-0.379-0.887s-0.497-0.427-0.895-0.466c-0.45-0.053-0.981-0.081-1.592-0.081l-0.377,0.021l-0.06-0.636
		l1.353-0.159l0.159,0.336l1.293-0.099c-0.094-0.452-0.286-0.769-0.577-0.955c-0.412-0.251-0.975-0.325-1.69-0.218
		c-0.876,0.132-1.406,0.378-1.591,0.735c-0.12,0.265-0.167,0.578-0.14,0.936c0.026,0.357,0.105,0.65,0.238,0.874
		c0.266,0.438,0.762,0.664,1.492,0.677l1.491,0.021l0.08,0.636L44.721,9.03l-0.139-0.317l-1.394,0.019
		c0.027,0.529,0.252,0.908,0.677,1.135c0.318,0.185,0.756,0.272,1.313,0.257C45.734,10.112,46.199,10,46.569,9.787z"/>
</g>
</svg>
