<?xml version="1.0" encoding="utf-8"?>
<!-- Generator: Adobe Illustrator 16.0.0, SVG Export Plug-In . SVG Version: 6.00 Build 0)  -->
<!DOCTYPE svg PUBLIC "-//W3C//DTD SVG 1.1//EN" "http://www.w3.org/Graphics/SVG/1.1/DTD/svg11.dtd">
<svg version="1.1" id="Layer_1" xmlns="http://www.w3.org/2000/svg" xmlns:xlink="http://www.w3.org/1999/xlink" x="0px" y="0px"
	 width="55.5px" height="17.75px" viewBox="0 0 55.5 17.75" enable-background="new 0 0 55.5 17.75" xml:space="preserve">
<g>
	<g>
		<path fill="#FFFFFF" d="M17.864,16.076h-1.528c-0.174,0-0.339-0.033-0.495-0.102c-0.155-0.067-0.292-0.159-0.409-0.275
			c-0.117-0.116-0.21-0.252-0.278-0.407c-0.068-0.154-0.102-0.321-0.102-0.499v-0.564c0-0.175,0.034-0.34,0.102-0.495
			s0.16-0.292,0.276-0.409c0.116-0.117,0.251-0.21,0.407-0.278c0.155-0.067,0.321-0.102,0.499-0.102h1.898v0.344h-1.898
			c-0.126,0-0.247,0.024-0.361,0.074c-0.115,0.05-0.215,0.117-0.3,0.201c-0.086,0.085-0.154,0.184-0.204,0.296
			c-0.05,0.113-0.075,0.233-0.075,0.359v0.574c0,0.127,0.025,0.247,0.075,0.361c0.05,0.115,0.117,0.215,0.201,0.301
			s0.183,0.153,0.296,0.203c0.113,0.05,0.233,0.075,0.359,0.075h1.537c0.126,0,0.247-0.025,0.361-0.075
			c0.115-0.05,0.215-0.116,0.301-0.201c0.086-0.084,0.154-0.183,0.203-0.296c0.05-0.112,0.075-0.232,0.075-0.359V14.67h-1.428
			v-0.344h1.772v0.466c0,0.175-0.034,0.34-0.102,0.495s-0.16,0.291-0.275,0.409c-0.116,0.117-0.252,0.21-0.407,0.277
			C18.208,16.042,18.042,16.076,17.864,16.076z"/>
		<path fill="#FFFFFF" d="M20.896,16.076c-0.205,0-0.39-0.052-0.556-0.155c-0.166-0.104-0.288-0.245-0.366-0.423
			c-0.054-0.117-0.081-0.242-0.081-0.375c0-0.136,0.026-0.262,0.079-0.377c0.053-0.116,0.124-0.218,0.214-0.303
			c0.09-0.087,0.195-0.154,0.314-0.204c0.119-0.05,0.245-0.074,0.377-0.074h2.694v-0.213c0-0.09-0.018-0.176-0.055-0.257
			c-0.035-0.082-0.085-0.152-0.146-0.211c-0.063-0.059-0.133-0.106-0.212-0.142c-0.08-0.037-0.165-0.055-0.255-0.055H20.63v-0.344
			h2.273c0.139,0,0.27,0.026,0.394,0.079c0.123,0.053,0.23,0.125,0.32,0.217s0.163,0.199,0.217,0.321
			c0.055,0.122,0.082,0.252,0.082,0.391v2.129L20.896,16.076z M20.526,14.617c-0.09,0.057-0.161,0.129-0.212,0.217
			c-0.051,0.087-0.077,0.184-0.077,0.289c0,0.087,0.018,0.168,0.052,0.241c0.034,0.074,0.081,0.139,0.14,0.192
			c0.059,0.055,0.127,0.098,0.204,0.129s0.159,0.048,0.246,0.048h2.694v-1.226h-2.676c-0.069,0-0.135,0.011-0.199,0.029
			C20.635,14.557,20.577,14.583,20.526,14.617z"/>
		<path fill="#FFFFFF" d="M30.07,13.045c0.157,0.068,0.293,0.16,0.41,0.276c0.115,0.115,0.207,0.252,0.275,0.409
			c0.067,0.156,0.102,0.323,0.102,0.501v1.844h-0.344v-1.844c0-0.126-0.024-0.247-0.074-0.361s-0.117-0.215-0.201-0.301
			s-0.184-0.154-0.296-0.205c-0.113-0.052-0.233-0.077-0.359-0.077h-1.735v2.788h-0.344v-2.788h-2.373v2.788h-0.344v-3.132h4.787
			C29.748,12.944,29.914,12.978,30.07,13.045z"/>
		<path fill="#FFFFFF" d="M31.607,13.893c0-0.133,0.027-0.257,0.084-0.373c0.055-0.115,0.129-0.216,0.221-0.3
			c0.092-0.085,0.199-0.151,0.318-0.199c0.121-0.048,0.249-0.072,0.385-0.072h2.115c0.133,0,0.258,0.024,0.377,0.074
			s0.225,0.118,0.314,0.206c0.09,0.087,0.162,0.189,0.217,0.305c0.055,0.116,0.082,0.24,0.082,0.373
			c0,0.136-0.027,0.262-0.082,0.377c-0.055,0.116-0.128,0.218-0.221,0.303c-0.094,0.086-0.201,0.154-0.321,0.204
			c-0.121,0.05-0.249,0.074-0.384,0.074h-2.762v0.43c0.012,0.078,0.038,0.145,0.079,0.198c0.04,0.055,0.091,0.1,0.151,0.136
			s0.128,0.063,0.203,0.079s0.152,0.025,0.23,0.025h2.865v0.343h-2.888c-0.114,0-0.229-0.018-0.346-0.054s-0.221-0.088-0.314-0.153
			c-0.093-0.066-0.17-0.148-0.229-0.244c-0.061-0.097-0.093-0.207-0.096-0.33V13.893z M32.615,13.292
			c-0.066,0-0.139,0.016-0.217,0.046s-0.15,0.071-0.217,0.124s-0.121,0.116-0.166,0.189c-0.043,0.074-0.064,0.155-0.064,0.242v0.628
			h2.779c0.084,0,0.166-0.016,0.244-0.047s0.147-0.075,0.207-0.132c0.061-0.055,0.108-0.12,0.143-0.193
			c0.035-0.074,0.053-0.154,0.053-0.242c0-0.087-0.019-0.169-0.055-0.244s-0.085-0.14-0.146-0.194
			c-0.063-0.054-0.133-0.097-0.213-0.129c-0.08-0.031-0.163-0.048-0.25-0.048H32.615z"/>
		<path fill="#FFFFFF" d="M39.508,16.076H36.52v-0.343h2.988c0.072,0,0.14-0.014,0.203-0.041c0.063-0.027,0.119-0.064,0.167-0.113
			c0.048-0.048,0.086-0.104,0.113-0.167c0.026-0.063,0.04-0.131,0.04-0.203s-0.014-0.141-0.04-0.206
			c-0.027-0.064-0.064-0.121-0.11-0.169c-0.047-0.049-0.104-0.086-0.168-0.113s-0.133-0.041-0.205-0.041h-2.291
			c-0.118,0-0.229-0.022-0.336-0.067c-0.105-0.045-0.197-0.107-0.277-0.186s-0.143-0.17-0.188-0.275s-0.068-0.219-0.068-0.339
			s0.023-0.234,0.068-0.342c0.045-0.106,0.107-0.199,0.186-0.277s0.17-0.141,0.275-0.188s0.219-0.07,0.34-0.07h2.986v0.344h-2.986
			c-0.076,0-0.145,0.014-0.207,0.043c-0.062,0.028-0.115,0.066-0.162,0.112c-0.047,0.047-0.084,0.103-0.111,0.165
			c-0.026,0.063-0.041,0.132-0.045,0.203c0.012,0.151,0.066,0.277,0.163,0.38s0.217,0.154,0.362,0.154h2.291
			c0.12,0,0.232,0.022,0.338,0.067s0.197,0.107,0.276,0.186c0.078,0.078,0.14,0.17,0.185,0.275c0.046,0.105,0.068,0.219,0.068,0.339
			s-0.022,0.233-0.068,0.339c-0.045,0.105-0.106,0.198-0.185,0.278c-0.079,0.08-0.171,0.143-0.276,0.188
			S39.628,16.076,39.508,16.076z"/>
	</g>
	<g>
		<g>
			<path fill="#21C17C" d="M24.622,6.444c-0.052,1.265-0.548,2.438-1.421,3.299c-0.887,0.899-2.086,1.395-3.351,1.395
				c-1.317,0-2.529-0.509-3.429-1.447c-0.886-0.926-1.369-2.151-1.369-3.454c0-2.699,2.19-4.902,4.902-4.902
				c0.821,0,1.629,0.209,2.347,0.587c0.508,0.286,0.69,0.912,0.417,1.421c-0.274,0.508-0.913,0.69-1.408,0.417
				c-0.417-0.222-0.886-0.352-1.355-0.352c-1.551,0-2.816,1.277-2.816,2.829c0,0.769,0.273,1.485,0.782,2.007
				c0.495,0.521,1.186,0.821,1.929,0.821c1.2,0,2.19-0.782,2.542-1.89h-2.385c-0.496,0-0.913-0.404-0.913-0.913
				c0-0.495,0.417-0.912,0.913-0.912h3.624C24.205,5.362,24.661,5.857,24.622,6.444z"/>
		</g>
		<linearGradient id="SVGID_1_" gradientUnits="userSpaceOnUse" x1="24.6245" y1="8.2407" x2="15.0532" y2="8.2407">
			<stop  offset="0" style="stop-color:#00533A"/>
			<stop  offset="0.1886" style="stop-color:#0B7850"/>
			<stop  offset="0.4194" style="stop-color:#17A068"/>
			<stop  offset="0.6033" style="stop-color:#1EB877"/>
			<stop  offset="0.7161" style="stop-color:#21C17C"/>
		</linearGradient>
		<path fill="url(#SVGID_1_)" d="M23.631,5.349h-3.624c-0.496,0-0.913,0.417-0.913,0.912c0,0.509,0.417,0.913,0.913,0.913h2.385
			c-0.352,1.107-1.342,1.89-2.542,1.89c-0.743,0-1.434-0.3-1.929-0.821c-0.509-0.521-0.782-1.238-0.782-2.007
			c0-0.312,0.051-0.61,0.145-0.892h-2.148c-0.053,0.29-0.083,0.587-0.083,0.892c0,1.303,0.482,2.528,1.369,3.454
			c0.899,0.938,2.112,1.447,3.429,1.447c1.265,0,2.464-0.495,3.351-1.395c0.873-0.861,1.369-2.034,1.421-3.299
			C24.661,5.857,24.205,5.362,23.631,5.349z"/>
		<linearGradient id="SVGID_2_" gradientUnits="userSpaceOnUse" x1="22.853" y1="6.2354" x2="32.6563" y2="6.2354">
			<stop  offset="0.1828" style="stop-color:#21C17C"/>
			<stop  offset="1" style="stop-color:#00533A"/>
		</linearGradient>
		<path fill="url(#SVGID_2_)" d="M32.656,6.235c0,2.712-2.189,4.902-4.901,4.902c-2.698,0-4.902-2.19-4.902-4.902
			c0-2.711,2.204-4.901,4.902-4.901C30.467,1.333,32.656,3.524,32.656,6.235z M24.939,6.235c0,1.564,1.238,2.829,2.803,2.829
			c1.538,0,2.828-1.29,2.828-2.829c0-1.538-1.29-2.828-2.828-2.828C26.178,3.407,24.939,4.67,24.939,6.235z"/>
		<linearGradient id="SVGID_3_" gradientUnits="userSpaceOnUse" x1="30.5713" y1="6.2354" x2="40.375" y2="6.2354">
			<stop  offset="0" style="stop-color:#00533A"/>
			<stop  offset="0.1886" style="stop-color:#0B7850"/>
			<stop  offset="0.4194" style="stop-color:#17A068"/>
			<stop  offset="0.6033" style="stop-color:#1EB877"/>
			<stop  offset="0.7161" style="stop-color:#21C17C"/>
		</linearGradient>
		<path fill="url(#SVGID_3_)" d="M40.375,6.235c0,2.712-2.189,4.902-4.902,4.902c-2.698,0-4.901-2.19-4.901-4.902
			c0-2.711,2.203-4.901,4.901-4.901C38.186,1.333,40.375,3.524,40.375,6.235z M32.658,6.235c0,1.564,1.238,2.829,2.803,2.829
			c1.537,0,2.828-1.29,2.828-2.829c0-1.538-1.291-2.828-2.828-2.828C33.896,3.407,32.658,4.67,32.658,6.235z"/>
		<linearGradient id="SVGID_4_" gradientUnits="userSpaceOnUse" x1="31.6133" y1="11.1372" x2="31.6133" y2="1.3335">
			<stop  offset="0" style="stop-color:#00533A"/>
			<stop  offset="0.372" style="stop-color:#21C17C"/>
		</linearGradient>
		<path fill="url(#SVGID_4_)" d="M38.289,6.234C38.289,6.235,38.289,6.235,38.289,6.234c0,1.54-1.291,2.83-2.828,2.83
			c-1.564,0-2.803-1.265-2.803-2.829c0,0,0,0,0-0.001h-0.002c0-2.711-2.189-4.9-4.901-4.9c-2.698,0-4.901,2.19-4.902,4.901h2.086
			c0-1.564,1.238-2.828,2.803-2.828c1.538,0,2.828,1.29,2.828,2.828h0.001l0,0c0,2.712,2.203,4.902,4.901,4.902
			c2.713,0,4.902-2.19,4.902-4.902c0,0,0,0,0-0.001H38.289z"/>
	</g>
</g>
</svg>
