<?xml version="1.0" encoding="utf-8"?>
<!-- Generator: Adobe Illustrator 16.0.0, SVG Export Plug-In . SVG Version: 6.00 Build 0)  -->
<!DOCTYPE svg PUBLIC "-//W3C//DTD SVG 1.1//EN" "http://www.w3.org/Graphics/SVG/1.1/DTD/svg11.dtd">
<svg version="1.1" id="Layer_1" xmlns="http://www.w3.org/2000/svg" xmlns:xlink="http://www.w3.org/1999/xlink" x="0px" y="0px"
	 width="55.5px" height="17.75px" viewBox="0 0 55.5 17.75" enable-background="new 0 0 55.5 17.75" xml:space="preserve">
<g>
	<path fill="#D52B1E" d="M46.959,12.117l-0.91-1.823l-0.913,1.823H46.959z M26.524,7.754l-1.823,0.911l1.823,0.912V7.754
		L26.524,7.754z M10.053,9.81l0.912,1.823l0.913-1.823H10.053z M51.753,5.926c-0.305,0-0.602,0.232-0.602,0.584
		c0,0.378,0.305,0.592,0.602,0.592c0.33,0,0.613-0.223,0.613-0.58c0-0.365-0.296-0.597-0.609-0.597H51.753z M49.241,7.79V7.078
		h1.515c-0.271-0.254-0.271-0.593-0.271-0.693c0-0.497,0.357-1.171,1.259-1.171c0.859,0,1.288,0.596,1.288,1.202
		c0,0.335-0.162,0.593-0.335,0.691h0.253V7.79H49.241L49.241,7.79z M51.77,10.181c0.219,0,0.597-0.163,0.597-0.593
		c0-0.253-0.12-0.408-0.266-0.499C52.006,9.03,51.903,9,51.795,8.992c-0.106-0.008-0.214,0.013-0.313,0.06
		c-0.162,0.078-0.33,0.241-0.33,0.542c0,0.408,0.344,0.588,0.613,0.588H51.77L51.77,10.181z M52.95,8.279v0.713h-0.258
		c0.233,0.129,0.34,0.425,0.34,0.704c0,0.756-0.593,1.199-1.275,1.199c-0.782,0-1.271-0.563-1.271-1.199
		c0-0.391,0.189-0.609,0.335-0.704h-0.253V8.279H52.95L52.95,8.279z M49.241,12.117v-0.713h3.709v0.713H49.241"/>
	<path fill="#006D55" d="M33.822,13.081l0.531,1.156c2.526-1.932,2.99-4.089,1.347-6.401c-1.302-1.832,0.132-3.461,0.563-3.885
		l-0.967-0.773c-0.632,0.693-2.29,2.86-0.84,5.04C35.86,10.328,35.715,11.472,33.822,13.081z M14.202,13.081l0.532,1.156
		c2.525-1.932,2.99-4.089,1.346-6.401c-1.302-1.832,0.13-3.461,0.563-3.885l-0.967-0.773c-0.632,0.693-2.29,2.86-0.839,5.04
		C16.241,10.328,16.094,11.472,14.202,13.081L14.202,13.081z M47.647,5.214l-1.599,2.77l-1.601-2.77h-1.303l2.903,5.026l2.901-5.026
		H47.647z M21.565,5.605c-0.456-0.268-1.014-0.391-1.757-0.391h-1.63v6.903h1.304V6.516h0.327c0.902,0,1.52,0.222,1.52,1.033
		c0,0.756-0.746,1.088-1.608,1.115c-0.026,0-0.123,0-0.188,0.001l0.865,1.236c0.428-0.076,0.812-0.215,1.132-0.412
		c0.024-0.015,0.048-0.031,0.071-0.047c0.655-0.433,1.029-1.119,1.029-1.894C22.63,6.698,22.251,6.009,21.565,5.605L21.565,5.605z
		 M31.878,9.443c0.653-0.433,1.028-1.119,1.028-1.894c0-0.851-0.379-1.54-1.066-1.944c-0.454-0.268-1.013-0.391-1.757-0.391h-1.63
		v6.903h1.303V6.516h0.327c0.902,0,1.521,0.222,1.521,1.033c0,0.756-0.744,1.088-1.607,1.115c-0.027,0-0.124,0-0.188,0.001
		l2.416,3.452h1.524L31.878,9.443L31.878,9.443z M40.677,8.665l2.416-3.451h-1.523l-2.416,3.451l2.416,3.452h1.523L40.677,8.665z
		 M39.101,5.214h-1.303v6.903h1.303V5.214z M5.106,8.665l2.417-3.451H5.999L3.583,8.665l2.417,3.452h1.524L5.106,8.665L5.106,8.665z
		 M3.53,5.214H2.228v6.903H3.53V5.214L3.53,5.214z M27.449,6.516V5.214h-4.102v6.903h4.102v-1.303h-2.8V6.516H27.449z
		 M14.307,12.117h-1.302l-2.04-4.375l-2.04,4.375H7.622l3.343-7.168L14.307,12.117"/>
</g>
</svg>
