<svg width="449" height="362" viewBox="0 0 449 362" fill="none" xmlns="http://www.w3.org/2000/svg">
<path d="M376.859 0V24.2716H423.733V71.1409H448.004V0H376.859Z" fill="black"/>
<path d="M376.781 24.3115H352.51V95.4524H423.655V71.1793H376.781V24.3115Z" fill="black"/>
<path d="M352.499 24.2716V0H0L24.2732 24.2716H352.499Z" fill="black"/>
<path d="M423.728 337.043L447.999 361.315V95.6475H423.728V337.043Z" fill="black"/>
<path d="M0 115.252H48.6375V142.941H28.534V209.575H48.6375V236.876H28.534V326.153H0V115.252Z" fill="black"/>
<path d="M57.4572 115.252H85.9912V326.153H57.4572V115.252Z" fill="black"/>
<path d="M100.128 115.252H126.198L143.967 225.231H145.653L142.411 115.252H170.685V326.153H145.653L126.198 209.187H125.161L128.273 326.153H100.128V115.252Z" fill="black"/>
<path d="M182.099 232.865H233.72V256.931H182.099V232.865Z" fill="black"/>
<path d="M242.928 115.252H271.462V326.153H242.928V115.252Z" fill="black"/>
<path d="M281.06 115.252H349.672V142.811H329.698V326.153H301.164V142.811H281.06V115.252Z" fill="black"/>
</svg>
