<?xml version="1.0" encoding="utf-8"?>
<!-- Generator: Adobe Illustrator 16.0.0, SVG Export Plug-In . SVG Version: 6.00 Build 0)  -->
<!DOCTYPE svg PUBLIC "-//W3C//DTD SVG 1.1//EN" "http://www.w3.org/Graphics/SVG/1.1/DTD/svg11.dtd">
<svg version="1.1" id="Capa_1" xmlns="http://www.w3.org/2000/svg" xmlns:xlink="http://www.w3.org/1999/xlink" x="0px" y="0px"
	 width="224px" height="227.333px" viewBox="89.667 -33.667 224 227.333" enable-background="new 89.667 -33.667 224 227.333"
	 xml:space="preserve">
<path fill="#71C7FF" d="M220.183,124.782c0,0-0.176-0.68-0.604-1.947c-0.428-1.262-1.674-1.676-2.609-2.083
	s-1.227-1.481-0.624-1.946c1.441-0.905,2.952-1.691,4.519-2.359c3.778-1.827-1.168-2.546-3.446-4.125
	c-1.182-0.764-2.126-1.846-2.728-3.118c-0.056-0.118-0.102-0.243-0.136-0.367l-17.528-49.956h-16.749l-17.428,49.469l-0.118,0.289
	c0,0-1.188,2.711,0.292,3.897c1.481,1.189,3.643,2.163-0.136,3.895c-3.779,1.731-5.259,2.354-5.843,2.767
	c-0.585,0.407-0.876,1.285,0.138,1.478c1.011,0.198,1.011,1.284,0.544,2.496l-0.739,1.945l-7.791,22.087h16.729l7.79-22.126
	l0.72-1.828c0.468-1.211,0.468-2.303-0.545-2.496c-1.013-0.19-0.74-1.091-0.136-1.481c0.603-0.386,2.084-0.951,5.843-2.762
	c3.758-1.811,1.343-3.039,0.136-3.898c-1.209-0.854-0.272-3.893-0.272-3.893l9.134-25.999l9.738,27.615h-14.315
	c-0.193,0.821,0.076,1.688,0.701,2.258c1.208,0.935,3.643,2.163-0.136,3.894c-3.778,1.738-5.259,2.36-5.842,2.768
	c-0.585,0.408-0.878,1.285,0.135,1.482c1.014,0.193,1.014,1.285,0.547,2.49c-0.469,1.206-0.956,2.688-0.956,2.688v0.097h25.415
	l7.459,21.209h16.729l-7.791-22.238L220.183,124.782z"/>
<polygon fill="#71C7FF" points="305.168,28.003 305.168,-26 251.164,-26 251.164,-11.137 290.303,-11.137 290.303,28.003 "/>
<polygon fill="#71C7FF" points="236.299,42.894 290.303,42.894 290.303,170.467 305.168,185.332 305.168,42.869 290.303,42.869 
	290.303,28.03 251.164,28.03 251.164,-11.137 236.299,-11.137 "/>
<polygon fill="#71C7FF" points="236.295,-26 93.835,-26 108.699,-11.137 236.295,-11.137 "/>
</svg>
