<svg width="224" height="181" viewBox="0 0 224 181" fill="none" xmlns="http://www.w3.org/2000/svg">
<path d="M188.428 0V12.1358H211.864V35.5703H224V0H188.428Z" fill="#71C7FF"/>
<path d="M188.392 12.1494H176.256V47.7198H211.829V35.5832H188.392V12.1494Z" fill="#71C7FF"/>
<path d="M176.249 12.1358V0H0L12.1365 12.1358H176.249Z" fill="#71C7FF"/>
<path d="M211.864 168.522L224 180.658V47.8247H211.864V168.522Z" fill="#71C7FF"/>
<path d="M0 57.625H24.3187V71.4693H14.267V104.786H24.3187V118.437H14.267V163.075H0V57.625Z" fill="#71C7FF"/>
<path d="M28.7285 57.625H42.9955V163.075H28.7285V57.625Z" fill="#71C7FF"/>
<path d="M50.0641 57.625H63.0989L71.9833 112.614H72.8264L71.2051 57.625H85.3424V163.075H72.8264L63.0989 104.592H62.5801L64.1365 163.075H50.0641V57.625Z" fill="#71C7FF"/>
<path d="M91.0492 116.431H116.859V128.464H91.0492V116.431Z" fill="#71C7FF"/>
<path d="M121.464 57.625H135.731V163.075H121.464V57.625Z" fill="#71C7FF"/>
<path d="M140.53 57.625H174.835V71.4047H164.848V163.075H150.581V71.4047H140.53V57.625Z" fill="#71C7FF"/>
</svg>
