<?xml version="1.0" encoding="utf-8"?>
<!-- Generator: Adobe Illustrator 16.0.0, SVG Export Plug-In . SVG Version: 6.00 Build 0)  -->
<!DOCTYPE svg PUBLIC "-//W3C//DTD SVG 1.1//EN" "http://www.w3.org/Graphics/SVG/1.1/DTD/svg11.dtd">
<svg version="1.1" id="Layer_1" xmlns="http://www.w3.org/2000/svg" xmlns:xlink="http://www.w3.org/1999/xlink" x="0px" y="0px"
	 width="55.5px" height="17.75px" viewBox="0 0 55.5 17.75" enable-background="new 0 0 55.5 17.75" xml:space="preserve">
<g>
	<g>
		<g>
			<g>
				<path fill="#E30611" d="M48.068,10.585c0,0-0.881,0.114-1.888,0.114c-1.239,0-1.479-0.396-1.479-1.372V8.153
					c0-1.004,0.212-1.385,1.479-1.385c0.907,0,1.787,0.128,1.787,0.128l0.128-1.813c0,0-1.122-0.155-2.089-0.155
					c-2.572,0-3.509,0.85-3.509,2.914v1.795c0,2.277,1.136,2.915,3.497,2.915c0.951,0,2.215-0.154,2.215-0.154L48.068,10.585z"/>
			</g>
			<polygon fill="#E30611" points="35.194,6.927 37.326,6.927 37.326,12.441 39.545,12.441 39.545,6.927 41.676,6.927 41.803,5.057 
				35.066,5.057 			"/>
			<polygon fill="#E30611" points="30.677,11.699 31.857,8.869 31.987,8.869 32.23,12.441 34.375,12.441 33.885,5.058 31.813,5.058 
				30.029,9.251 29.901,9.251 28.044,5.058 26,5.058 25.513,12.441 27.6,12.441 27.814,8.869 27.943,8.869 29.268,11.699 			"/>
		</g>
		<path fill="#E30611" d="M21.819,14.656c0,0.815-0.663,1.477-1.478,1.477H8.526c-0.814,0-1.477-0.662-1.477-1.477V2.84
			c0-0.815,0.663-1.476,1.477-1.476l11.815,0.001c0.815,0,1.478,0.66,1.478,1.475V14.656z M14.433,14.222c2.763,0,4-2.2,4-4.378
			c0-3.068-2.131-6.566-4-6.566c-1.863,0-3.995,3.498-3.995,6.566C10.438,12.023,11.674,14.222,14.433,14.222"/>
	</g>
	<path fill="#FFFFFF" d="M18.431,9.834c0-3.068-2.131-6.565-3.998-6.565c-1.865,0-3.995,3.497-3.995,6.565
		c0,2.179,1.233,4.378,3.995,4.378C17.196,14.212,18.431,12.013,18.431,9.834z"/>
</g>
</svg>
