<?xml version="1.0" encoding="utf-8"?>
<!-- Generator: Adobe Illustrator 16.0.0, SVG Export Plug-In . SVG Version: 6.00 Build 0)  -->
<!DOCTYPE svg PUBLIC "-//W3C//DTD SVG 1.1//EN" "http://www.w3.org/Graphics/SVG/1.1/DTD/svg11.dtd">
<svg version="1.1" id="Layer_1" xmlns="http://www.w3.org/2000/svg" xmlns:xlink="http://www.w3.org/1999/xlink" x="0px" y="0px"
	 width="55.5px" height="17.75px" viewBox="0 0 55.5 17.75" enable-background="new 0 0 55.5 17.75" xml:space="preserve">
<path fill-rule="evenodd" clip-rule="evenodd" fill="#FFFFFF" d="M36.431,13.085l-4.252,0.122v2.874h4.252V13.085L36.431,13.085z
	 M34.956,7.917l-2.777,0.241v2.923l2.777-0.146V7.917L34.956,7.917z M31.648,3.231l-2.899,0.385v12.464h2.899V3.231L31.648,3.231z
	 M36.431,2.554l-4.252,0.58v2.875l4.252-0.459V2.554L36.431,2.554z M43.484,5.211c0.338,0.7-0.025,1.763-0.848,2.729
	c-1.28,1.499-4.685,4.59-4.685,4.59l4.88-0.169c2.971-2.898,4.058-4.662,4.251-6.86c0.097-1.184-0.337-2.295-1.161-3.092
	c-0.917-0.869-2.27-1.231-3.744-1.014v3.188C42.783,4.534,43.267,4.751,43.484,5.211L43.484,5.211L43.484,5.211z M40.562,7.36
	c-0.146-1.933,0.458-2.391,1.039-2.657V1.466c-2.875,0.605-4.277,2.73-4.106,6.185L40.562,7.36L40.562,7.36z M47.251,16.081v-3.309
	l-9.903,0.29l0.024,3.019H47.251L47.251,16.081z M12.058,16.081V8.568L9.933,8.786v7.295H12.058L12.058,16.081z M17.25,7.651
	l3.213-0.338V4.8L17.25,5.235V7.651L17.25,7.651z M17.25,16.081h3.213v-2.512l-3.213,0.097V16.081L17.25,16.081z M23.821,4.317
	L21.31,4.679v11.401h2.512V4.317L23.821,4.317z M24.304,16.081h3.673v-2.73l-3.673,0.097V16.081L24.304,16.081z M13.845,5.718
	L8.096,6.54L8.12,8.665l5.725-0.628V5.718L13.845,5.718z M19.353,9.269L17.25,9.438v2.464l2.102-0.121V9.269L19.353,9.269z
	 M16.841,5.307l-2.198,0.314v10.459h2.198V5.307L16.841,5.307z"/>
</svg>
