<?xml version="1.0" encoding="utf-8"?>
<!-- Generator: Adobe Illustrator 16.0.0, SVG Export Plug-In . SVG Version: 6.00 Build 0)  -->
<!DOCTYPE svg PUBLIC "-//W3C//DTD SVG 1.1//EN" "http://www.w3.org/Graphics/SVG/1.1/DTD/svg11.dtd">
<svg version="1.1" id="Layer_1" xmlns="http://www.w3.org/2000/svg" xmlns:xlink="http://www.w3.org/1999/xlink" x="0px" y="0px"
	 width="55.5px" height="17.75px" viewBox="0 0 55.5 17.75" enable-background="new 0 0 55.5 17.75" xml:space="preserve">
<g id="Symbols">
	<g id="logo_ru_black">
		<g id="лого">
			<circle id="Oval" fill="#101010" cx="17.596" cy="8.689" r="7.374"/>
			<g id="Group-5" transform="translate(9.000000, 8.000000)">
				<g id="Group-Copy-18">
					<g id="Page-1-Copy-47" transform="translate(0.547619, 0.000000)">
						
							<linearGradient id="Fill-1_2_" gradientUnits="userSpaceOnUse" x1="-7.9192" y1="24.9004" x2="-7.5505" y2="24.5317" gradientTransform="matrix(10.4406 0 0 -9.8264 91.2107 245.4497)">
							<stop  offset="0" style="stop-color:#FF9D6B"/>
							<stop  offset="1" style="stop-color:#FE00FF"/>
						</linearGradient>
						<path id="Fill-1" fill="url(#Fill-1_2_)" d="M9.366,1.02c-0.604,0-1.096,0.524-1.096,1.17c0,0.004,0,0.008,0,0.011
							C8.268,2.298,8.281,2.61,8.508,3.04c0.297,0.563,0.832,1.091,1.589,1.569c0.015,0.011,0.032,0.02,0.05,0.025
							c0.017,0.005,0.033,0.008,0.05,0.008c0.018,0,0.035-0.003,0.052-0.009c0.02-0.007,0.033-0.014,0.045-0.021
							c0.757-0.479,1.292-1.007,1.589-1.57c0.228-0.43,0.24-0.741,0.237-0.839c0-0.003,0-0.007,0-0.012
							c0-0.645-0.491-1.169-1.096-1.169c-0.325,0-0.73,0.185-0.827,0.606C10.097,1.205,9.692,1.02,9.366,1.02z"/>
						
							<linearGradient id="Fill-3_1_" gradientUnits="userSpaceOnUse" x1="-5.53" y1="27.46" x2="-5.1613" y2="27.0912" gradientTransform="matrix(9.5194 0 0 -10.7477 60.6152 291.8628)">
							<stop  offset="0" style="stop-color:#99F6B3"/>
							<stop  offset="1" style="stop-color:#00F2FF"/>
						</linearGradient>
						<path id="Fill-3" fill="url(#Fill-3_1_)" d="M8.636-3.713c-0.052-0.029-0.115-0.03-0.168-0.001
							C8.416-3.686,8.384-3.632,8.384-3.573v3.639c0,0.059,0.032,0.111,0.084,0.141C8.494,0.22,8.523,0.228,8.551,0.228
							c0.029,0,0.059-0.008,0.085-0.022l3.176-1.819c0.051-0.03,0.082-0.082,0.082-0.14s-0.031-0.11-0.082-0.14L8.636-3.713z"/>
						
							<linearGradient id="Fill-5_1_" gradientUnits="userSpaceOnUse" x1="0.9919" y1="46.459" x2="0.9919" y2="46.0898" gradientTransform="matrix(7.984 0 0 -22.1095 -2.2532 1023.5737)">
							<stop  offset="0" style="stop-color:#FFFFFF"/>
							<stop  offset="1" style="stop-color:#E5FBFF"/>
						</linearGradient>
						<path id="Fill-5" fill="url(#Fill-5_1_)" d="M7.138-3.416c0-0.076-0.042-0.146-0.11-0.183C6.846-3.695,6.564-3.479,6.564-3.21
							v5.314C5.471,1.582,4.195,2.386,4.195,3.472c0,0.575,0.381,1.058,1.25,1.058c0.858,0,1.689-0.771,1.694-2.094V-3.416z"/>
					</g>
				</g>
				<g id="Page-1-Copy-2" transform="translate(39.000000, 4.000000)">
					<polygon id="Fill-9" fill="#FFFFFF" points="-6.549,-4.676 -5.28,-4.676 -5.544,-3.383 -5.163,-3.383 -4.247,-4.676 
						-2.795,-4.676 -4.254,-2.775 -4.254,-2.761 -3.382,-0.996 -4.753,-0.996 -5.354,-2.346 -5.749,-2.346 -6.021,-0.996 
						-7.289,-0.996 					"/>
					<path id="Fill-6" fill="#FFFFFF" d="M-11.101-0.524c0.22,0,0.483-0.057,0.682-0.371l0.11-0.172l-0.888-3.608h1.319l0.309,1.822
						c0.036,0.2,0.036,0.543,0.036,0.543h0.015c0,0,0.132-0.321,0.228-0.521l0.843-1.844h1.423l-2.361,4.073
						c-0.469,0.807-1.121,1.107-1.649,1.107c-0.337,0-0.696-0.101-0.989-0.286l0.55-0.857C-11.38-0.567-11.226-0.524-11.101-0.524"
						/>
					<path id="Fill-4" fill="#FFFFFF" d="M-13.366-3.225c0.249,0,0.455-0.193,0.455-0.415c0-0.157-0.104-0.271-0.33-0.271h-0.462
						l-0.14,0.687H-13.366z M-13.579-1.768c0.242,0,0.491-0.186,0.491-0.45c0-0.171-0.109-0.286-0.337-0.286h-0.564l-0.146,0.736
						H-13.579z M-14.817-4.676h2.023c0.688,0,1.144,0.308,1.144,0.851c0,0.336-0.184,0.714-0.623,0.914v0.008
						c0.322,0.121,0.454,0.442,0.454,0.743c0,0.765-0.843,1.164-1.642,1.164h-2.098L-14.817-4.676z"/>
					<path id="Fill-1_1_" fill="#FFFFFF" d="M-19.149-2.489c0.263,0.308,0.666,0.485,1.04,0.485c0.426,0,0.843-0.229,0.843-0.664
						c0-0.25-0.153-0.386-0.534-0.386h-0.756l0.198-1h0.638c0.359,0,0.726-0.25,0.726-0.629c0-0.257-0.139-0.422-0.513-0.422
						c-0.264,0-0.608,0.079-1.107,0.422l-0.454-0.907c0.623-0.479,1.313-0.601,1.774-0.601c0.908,0,1.657,0.422,1.657,1.279
						c0,0.579-0.374,1.058-0.932,1.279l-0.008,0.014c0.359,0.164,0.624,0.529,0.624,1.001c0,1.057-1.093,1.707-2.148,1.707
						c-0.711,0-1.394-0.293-1.781-0.778L-19.149-2.489z"/>
				</g>
			</g>
		</g>
	</g>
</g>
</svg>
