<?xml version="1.0" encoding="utf-8"?>
<!-- Generator: Adobe Illustrator 16.0.0, SVG Export Plug-In . SVG Version: 6.00 Build 0)  -->
<!DOCTYPE svg PUBLIC "-//W3C//DTD SVG 1.1//EN" "http://www.w3.org/Graphics/SVG/1.1/DTD/svg11.dtd">
<svg version="1.1" id="Layer_1" xmlns="http://www.w3.org/2000/svg" xmlns:xlink="http://www.w3.org/1999/xlink" x="0px" y="0px"
	 width="104.25px" height="103px" viewBox="0 0 104.25 103" enable-background="new 0 0 104.25 103" xml:space="preserve">
<g>
	<g id="Shape_7_3_">
		<g>
			<path fill="#A7B2BC" d="M27.628,68.584L15.799,90.593h4.888l11.797-22.009H27.628z M18.184,68.584L6.354,90.593h4.887
				l11.798-22.009H18.184z M37.071,68.584L25.243,90.593h4.888l11.797-22.009H37.071z"/>
		</g>
	</g>
	<g id="Shape_8_3_">
		<g>
			<path fill-rule="evenodd" clip-rule="evenodd" fill="#A7B2BC" d="M81.489,87.448c1.99-0.131,2.313-2.811,0.572-3.318
				c-0.083-0.025-0.194-0.055-0.305-0.084l-0.014-0.004c-0.27-0.076-1.148-0.303-2.247-0.531c-0.864-0.184-1.799-0.365-2.644-0.488
				c-0.259-0.039-0.546-0.057-0.82-0.037l-0.058-0.002l0.018,0.004c-0.854,0.072-1.655,0.512-1.646,1.846
				c0.003,0.848,0.064,1.895,1.351,2.404C77.194,87.837,80.962,87.487,81.489,87.448z M82.907,89.31
				c-0.022-0.773-0.874-1.016-1.399-1.143c-0.53-0.125-2.527-0.313-3.071-0.355c-1.113-0.076-2.184,0.246-2.15,1.35
				c0.022,0.953,0.562,1.982,1.646,2.098c0.913,0.1,2.771-0.408,3.773-0.547C82.011,90.669,82.944,90.394,82.907,89.31z
				 M89.925,71.946c-1.994,1.273-2.275,4.344-2.511,5.342c-0.281,1.188-2.016,2.18-2.963,1.051c-0.445-0.525-5.02-8.25-5.819-9.314
				c-0.796-1.063-2.587-1.811-4.006-0.773c-1.316,0.971-0.871,2.221-0.161,3.004c0.368,0.408,2.748,3.537,3.985,5.363
				c0.772,1.133,1.184,2.113,0.814,2.607c-0.256,0.34-1.586,0.264-2.956-0.459c-2.147-1.129-6.117-3.168-6.898-3.52
				c-1.063-0.475-2.564-0.768-3.288,0.783c-0.645,1.379,0.302,3.117,1.353,3.709c0.582,0.326,6.072,2.346,8.42,3.215
				c1.538-0.266,5.651,0.148,6.454,0.439c0.82,0.295,2.113,0.828,2.028,2.48c-0.093,1.77-1.483,2.129-1.483,2.129
				s1.247,0.592,0.892,1.746c-0.201,0.646-0.776,0.934-1.37,1.051c0.831,0.41,2.814,1.34,5.855-0.369
				c2.205-1.322,3.763-3.281,3.875-5.701c0.086-1.832-0.324-2.93-0.506-3.846c-0.291-1.463,0.124-4.75,1.543-6.352
				C95.146,72.323,92.311,70.421,89.925,71.946z"/>
		</g>
	</g>
	<g id="Shape_6_3_">
		<g>
			<path fill="#A7B2BC" d="M89.746,29.483l-0.029-0.057c0,0-0.051-0.196-0.175-0.561c-0.124-0.363-0.485-0.481-0.757-0.6
				c-0.271-0.117-0.355-0.426-0.181-0.561c0.418-0.261,0.855-0.486,1.311-0.679c1.096-0.526-0.339-0.733-1-1.188
				c-0.342-0.22-0.617-0.531-0.791-0.897c-0.016-0.034-0.029-0.07-0.039-0.105l-5.086-14.378h-4.857l-5.057,14.238l-0.034,0.083
				c0,0-0.345,0.779,0.085,1.122c0.429,0.341,1.057,0.622-0.04,1.119c-1.097,0.5-1.525,0.68-1.695,0.797
				c-0.169,0.117-0.254,0.37,0.04,0.425c0.293,0.058,0.293,0.371,0.158,0.719l-0.215,0.561l-2.26,6.356h4.854l2.26-6.368
				l0.209-0.526c0.136-0.348,0.136-0.661-0.158-0.718c-0.293-0.056-0.215-0.313-0.039-0.426c0.174-0.111,0.604-0.274,1.694-0.796
				c1.09-0.521,0.39-0.874,0.04-1.121c-0.352-0.247-0.08-1.121-0.08-1.121l2.65-7.483l2.824,7.949h-4.152
				c-0.056,0.236,0.022,0.485,0.203,0.649c0.351,0.269,1.057,0.622-0.039,1.121c-1.097,0.5-1.525,0.679-1.694,0.796
				c-0.17,0.118-0.255,0.37,0.039,0.427c0.293,0.056,0.293,0.37,0.158,0.717c-0.136,0.348-0.276,0.773-0.276,0.773v0.027h7.373
				l2.162,6.104h4.854L89.746,29.483z"/>
		</g>
	</g>
</g>
<g>
	<path fill="#AFBAC4" d="M42.127,56.464H6.154c-2.838,0-5.139,2.301-5.139,5.139v35.973c0,2.838,2.301,5.139,5.139,5.139h35.973
		c2.838,0,5.139-2.301,5.139-5.139V61.603C47.266,58.765,44.965,56.464,42.127,56.464z M45.432,96.148
		c0,2.614-2.118,4.731-4.731,4.731H7.581c-2.613,0-4.731-2.117-4.731-4.731V63.029c0-2.614,2.118-4.731,4.731-4.731H40.7
		c2.613,0,4.731,2.117,4.731,4.731V96.148z"/>
	<path fill="#AFBAC4" d="M30.657,15.296c-2.415,0-4.567,1.141-5.955,2.91c-1.085-1.389-2.641-2.391-4.435-2.757
		c-0.04-0.008-0.081-0.011-0.121-0.019c-0.456-0.085-0.925-0.135-1.406-0.135c-4.166,0-7.567,3.381-7.567,7.567
		s3.401,7.567,7.567,7.567c2.427,0,4.577-1.141,5.961-2.91c1.387,1.77,3.54,2.91,5.955,2.91c4.188,0,7.568-3.381,7.568-7.567v-0.001
		l0,0C38.225,18.676,34.845,15.296,30.657,15.296z M18.721,27.23c-2.415,0-4.327-1.952-4.327-4.367s1.912-4.367,4.327-4.367
		c2.375,0,4.368,1.992,4.368,4.367S21.096,27.23,18.721,27.23z M30.638,27.23c-2.415,0-4.328-1.952-4.328-4.367
		s1.913-4.367,4.328-4.367c2.375,0,4.367,1.992,4.367,4.367S33.013,27.23,30.638,27.23z"/>
	<path fill="#AFBAC4" d="M42.127,0.485H6.154c-2.838,0-5.139,2.301-5.139,5.139v35.973c0,2.838,2.301,5.139,5.139,5.139h35.973
		c2.838,0,5.139-2.301,5.139-5.139V5.624C47.266,2.786,44.965,0.485,42.127,0.485z M45.432,40.169c0,2.615-2.118,4.732-4.731,4.732
		H7.581c-2.613,0-4.731-2.117-4.731-4.732V7.05c0-2.613,2.118-4.73,4.731-4.73H40.7c2.613,0,4.731,2.117,4.731,4.73V40.169z"/>
	<path fill="#AFBAC4" d="M97.861,56.464H61.889c-2.838,0-5.139,2.301-5.139,5.139v35.973c0,2.838,2.301,5.139,5.139,5.139h35.973
		c2.838,0,5.139-2.301,5.139-5.139V61.603C103,58.765,100.699,56.464,97.861,56.464z M101.166,96.147
		c0,2.615-2.118,4.732-4.731,4.732H63.315c-2.613,0-4.731-2.117-4.731-4.732V63.028c0-2.613,2.118-4.73,4.731-4.73h33.119
		c2.613,0,4.731,2.117,4.731,4.73V96.147z"/>
	<path fill="#AFBAC4" d="M97.861,0.485H61.889c-2.838,0-5.139,2.301-5.139,5.139v35.973c0,2.838,2.301,5.139,5.139,5.139h35.973
		c2.838,0,5.139-2.301,5.139-5.139V5.624C103,2.786,100.699,0.485,97.861,0.485z M101.166,40.169c0,2.615-2.118,4.732-4.731,4.732
		H63.315c-2.613,0-4.731-2.117-4.731-4.732V7.05c0-2.613,2.118-4.73,4.731-4.73h33.119c2.613,0,4.731,2.117,4.731,4.73V40.169z"/>
</g>
</svg>
